<?xml version="1.0" encoding="UTF-8"?>
<svg width="25px" height="24px" viewBox="0 0 25 24" version="1.1" xmlns="http://www.w3.org/2000/svg" xmlns:xlink="http://www.w3.org/1999/xlink">
    <!-- Generator: Sketch 42 (36781) - http://www.bohemiancoding.com/sketch -->
    <title>Icon Instagram</title>
    <desc>Created with Sketch.</desc>
    <defs></defs>
    <g id="Page-1" stroke="none" stroke-width="1" fill="none" fill-rule="evenodd">
        <g id="kimokeo-home-2" transform="translate(-979.000000, -3770.000000)">
            <g id="Group-30" transform="translate(144.000000, 3764.000000)">
                <g id="Group-26" transform="translate(783.843046, 0.000000)">
                    <g id="Icon-Instagram" transform="translate(45.990791, 0.000000)">
                        <rect id="bounds" x="0" y="0" width="35.9927929" height="36"></rect>
                        <path d="M17.9963965,25.3845 C22.07408,25.3845 25.3794181,22.0785 25.3794181,18 C25.3794181,17.361 25.2894361,16.7445 25.1379665,16.152 L27.2255484,16.152 L27.2255484,26.307 C27.2255484,26.817 26.813131,27.231 26.3017334,27.231 L9.69105949,27.231 C9.18116159,27.231 8.76724448,26.817 8.76724448,26.307 L8.76724448,16.152 L10.8563262,16.152 C10.7048565,16.7445 10.6148745,17.361 10.6148745,18 C10.6148745,22.0785 13.9202127,25.3845 17.9963965,25.3845 M17.9963965,22.6155 C15.4484067,22.6155 13.3833202,20.5485 13.3833202,18 C13.3833202,15.45 15.4484067,13.3845 17.9963965,13.3845 C20.545886,13.3845 22.6109725,15.45 22.6109725,18 C22.6109725,20.5485 20.545886,22.6155 17.9963965,22.6155 M23.5347875,13.3845 C23.0248896,13.3845 22.6109725,12.9705 22.6109725,12.462 L22.6109725,9.6915 C22.6109725,9.1815 23.0248896,8.769 23.5347875,8.769 L26.3017334,8.769 C26.813131,8.769 27.2255484,9.1815 27.2255484,9.6915 L27.2255484,12.462 C27.2255484,12.9705 26.813131,13.3845 26.3017334,13.3845 L23.5347875,13.3845 M27.2255484,6 L8.76724448,6 C7.23905048,6 5.99879882,7.239 5.99879882,8.769 L5.99879882,27.231 C5.99879882,28.7595 7.23905048,30 8.76724448,30 L27.2255484,30 C28.7552421,30 29.9939941,28.7595 29.9939941,27.231 L29.9939941,8.769 C29.9939941,7.239 28.7552421,6 27.2255484,6" id="Insta" fill="#919191"></path>
                    </g>
                </g>
            </g>
        </g>
    </g>
</svg>