<?xml version="1.0" encoding="UTF-8"?>
<svg width="31px" height="24px" viewBox="0 0 31 24" version="1.1" xmlns="http://www.w3.org/2000/svg" xmlns:xlink="http://www.w3.org/1999/xlink">
    <!-- Generator: Sketch 42 (36781) - http://www.bohemiancoding.com/sketch -->
    <title>Icon Twitter</title>
    <desc>Created with Sketch.</desc>
    <defs></defs>
    <g id="Page-1" stroke="none" stroke-width="1" fill="none" fill-rule="evenodd">
        <g id="kimokeo-home-2" transform="translate(-1022.000000, -3770.000000)">
            <g id="Group-30" transform="translate(144.000000, 3764.000000)">
                <g id="Group-26" transform="translate(783.843046, 0.000000)">
                    <g id="Icon-Twitter" transform="translate(91.981582, 0.000000)">
                        <rect id="bounds" x="0" y="0" width="35.9927929" height="36"></rect>
                        <path d="M23.4418061,6 C20.095976,6 17.384519,8.7135 17.384519,12.06 C17.384519,12.534 17.4370085,12.996 17.5404878,13.44 C12.5059958,13.188 8.04288952,10.7745 5.05548771,7.11 C4.53509191,8.0055 4.23515197,9.0465 4.23515197,10.155 C4.23515197,12.258 5.30443786,14.112 6.93011234,15.1995 C5.93731113,15.1665 5.00299822,14.895 4.18716158,14.442 L4.18566188,14.517 C4.18566188,17.4525 6.27324387,19.902 9.04468892,20.4585 C8.53629072,20.5965 8.00089793,20.6715 7.44900844,20.6715 C7.05908651,20.6715 6.67816279,20.6325 6.30923666,20.562 C7.08008231,22.9695 9.31763427,24.72 11.9691033,24.7695 C9.89501865,26.394 7.28254177,27.363 4.44510993,27.363 C3.95620782,27.363 3.47330452,27.3345 2.99939941,27.279 C5.68086248,28.998 8.86472496,30 12.28554,30 C23.4283088,30 29.520089,20.769 29.520089,12.762 C29.520089,12.4995 29.5155899,12.2385 29.5035923,11.979 C30.6868554,11.124 31.7141497,10.0575 32.5254872,8.8425 C31.4397046,9.324 30.2714385,9.6495 29.0461839,9.795 C30.2984331,9.0465 31.258241,7.8585 31.7096506,6.444 C30.5398848,7.1385 29.2441442,7.6425 27.8629208,7.914 C26.7591418,6.7365 25.1844571,6 23.4418061,6" id="Twitter" fill="#919191"></path>
                    </g>
                </g>
            </g>
        </g>
    </g>
</svg>