<?xml version="1.0" encoding="UTF-8"?>
<svg width="122px" height="61px" viewBox="0 0 122 61" version="1.1" xmlns="http://www.w3.org/2000/svg" xmlns:xlink="http://www.w3.org/1999/xlink">
    <!-- Generator: Sketch 42 (36781) - http://www.bohemiancoding.com/sketch -->
    <title>Group 35</title>
    <desc>Created with Sketch.</desc>
    <defs>
        <polygon id="path-1" points="0 1.92450396e-14 0 51.0123128 48.1891249 51.0123128 48.1891249 1.92450396e-14 0 0"></polygon>
        <polygon id="path-3" points="1.95724424e-05 60.2426047 46.6475869 60.2426047 46.6475869 0.195763559 1.95724424e-05 0.195763559 1.95724424e-05 60.2426047"></polygon>
    </defs>
    <g id="Page-1" stroke="none" stroke-width="1" fill="none" fill-rule="evenodd">
        <g id="kimokeo-home-1" transform="translate(-75.000000, -28.000000)">
            <g id="Group-40" transform="translate(75.000000, 28.000000)">
                <g id="Group-35">
                    <g id="Group-13" transform="translate(0.000000, 7.625000)">
                        <mask id="mask-2" fill="white">
                            <use xlink:href="#path-1"></use>
                        </mask>
                        <g id="Clip-4"></g>
                        <path d="M5.52646267,5.58153835 C4.85298664,10.6536533 2.73042052,26.6747606 2.32186848,30.2189438 C2.08279073,32.2936537 2.60901119,34.9125461 3.6952336,37.0538399 C5.15169213,39.9254126 7.59291524,41.1165877 9.37528583,41.9864671 C9.48694614,42.0409756 9.59565907,42.0940171 9.70085782,42.14593 C11.2390494,42.9038581 21.7610781,47.5229767 24.0946085,48.5462248 C26.4281389,47.5229767 36.9501676,42.9038581 38.4883592,42.14593 C38.5935579,42.0940171 38.7022709,42.0409756 38.8139312,41.9864671 C40.5963018,41.1165877 43.0374115,39.9254126 44.4939834,37.0538399 C45.5802058,34.9125461 46.1064263,32.2936537 45.8672352,30.2189438 C45.4587965,26.6747606 43.3362304,10.6536533 42.6627543,5.58153835 C40.7997843,6.36226305 37.3943149,7.42997574 33.5864149,6.89335447 C29.2662379,6.28450657 25.5965247,3.95248934 24.0946085,2.87710257 C22.5926923,3.95248934 18.9229791,6.28450657 14.6026887,6.89335447 C10.794562,7.42975003 7.38943274,6.36226305 5.52646267,5.58153835 L5.52646267,5.58153835 Z M24.0946085,51.0123128 L23.6381049,50.8123353 C23.1008884,50.5771473 10.4636621,45.0401864 8.69500815,44.1687269 C8.59230334,44.1180555 8.48619771,44.0663683 8.37725806,44.0131011 C6.42348605,43.0597097 3.47077938,41.6187884 1.67129131,38.0713325 C0.396436656,35.5579587 -0.217298281,32.4505209 0.0695043401,29.9616365 C0.556275271,25.7382973 3.45479552,3.96151766 3.48392922,3.74201643 L3.70758992,2.06229592 L5.1783319,2.9151344 C5.21891504,2.93838234 9.46143998,5.3382249 14.285052,4.65850462 C19.2096684,3.96445187 23.3330512,0.623970349 23.3740878,0.590339826 L24.0946085,0 L24.8150159,0.590339826 C24.8554857,0.623293225 29.000407,3.96738608 33.904165,4.65850462 C38.7556638,5.34206194 42.9688283,2.93951089 43.0108851,2.9151344 L44.4816271,2.06229592 L44.7051744,3.74201643 C44.7344215,3.96151766 47.6328284,25.7382973 48.1195993,29.9616365 C48.4065153,32.4505209 47.7927804,35.5579587 46.5179257,38.0713325 C44.7184376,41.6187884 41.765731,43.0597097 39.8118456,44.0131011 C39.7029059,44.0663683 39.5969137,44.1180555 39.4942089,44.1686141 C37.7255549,45.0401864 25.0882152,50.5771473 24.5511121,50.8123353 L24.0946085,51.0123128 Z" id="Fill-3" fill="#FFFFFF" mask="url(#mask-2)"></path>
                        <path d="M16.3796813,25.5546916 C18.1528697,25.5546916 19.2741206,24.5941903 19.2741206,23.1663602 L19.2741206,23.1144473 C19.2741206,21.5569478 18.1528697,20.7521852 16.3536084,20.7521852 L13.9545555,20.7521852 L13.9545555,25.5546916 L16.3796813,25.5546916 Z M8.89583333,16.5208333 L16.7448162,16.5208333 C21.3341116,16.5208333 24.3067698,18.8830955 24.3067698,22.8808393 L24.3067698,22.932865 C24.3067698,27.2420862 20.995163,29.5005226 16.4839732,29.5005226 L13.9545555,29.5005226 L13.9545555,34.6923757 L8.89583333,34.6923757 L8.89583333,16.5208333 Z" id="Fill-6" fill="#FFFFFF" mask="url(#mask-2)"></path>
                        <polygon id="Fill-8" fill="#FFFFFF" mask="url(#mask-2)" points="25.4166667 16.5208333 40.0974467 16.5208333 40.0974467 20.7782545 30.4232429 20.7782545 30.4232429 23.5558197 39.1847795 23.5558197 39.1847795 27.5276071 30.4232429 27.5276071 30.4232429 30.409111 40.2278115 30.409111 40.2278115 34.6924885 25.4166667 34.6924885"></polygon>
                    </g>
                    <g id="Group-29" transform="translate(74.979167, 0.000000)">
                        <mask id="mask-4" fill="white">
                            <use xlink:href="#path-3"></use>
                        </mask>
                        <g id="Clip-2"></g>
                        <path d="M26.2100631,60.1430201 C26.0683586,60.1371484 22.6923082,59.9790031 18.4783615,58.5459089 C12.8685084,56.638183 8.47038506,53.3515787 5.75960192,49.0413356 L5.60948129,48.8027475 L6.31154477,43.4193475 L3.78552547,45.4458781 L5.16146811,40.7451649 C3.55907233,40.0319451 1.95724424e-05,37.7805271 1.95724424e-05,31.8534047 C1.95724424e-05,27.0023751 3.2502192,26.8624321 3.62092124,26.8624321 C3.7696718,26.8624321 4.73028722,26.8992283 5.72280573,27.7995606 C5.8324114,25.5988353 5.75764467,22.0010291 4.50970581,18.9107363 L4.35234338,18.5208533 L4.59034427,18.1742254 C4.69270813,18.0252791 7.13123861,14.4957807 9.97178704,12.1427818 C11.8834274,10.5593713 13.8813822,9.51322431 15.4865181,8.67258795 C16.3457483,8.22281325 17.0877396,7.83430028 17.6702154,7.44598304 C19.5456468,6.19569549 23.6141702,3.08504737 24.6346773,1.7537299 L25.8293791,0.195763559 L26.034694,2.14811459 C26.0433059,2.23012312 26.1959709,3.8428923 25.1797698,5.78917588 C26.3856279,5.65001582 28.2407039,5.24525773 30.4191166,4.12297394 L32.5979208,3.00069014 L31.4732883,5.17812425 C31.4345349,5.2530867 30.8219175,6.40981799 29.5444242,7.22853322 C29.8225486,7.24556124 30.1325761,7.25554319 30.4782254,7.25554319 C30.8671298,7.25554319 31.2863715,7.2428211 31.7240113,7.21776838 L33.919452,7.09270048 C33.919452,7.09270048 32.1534307,8.70840552 32.0817955,8.77416892 C34.5669084,10.0391358 39.106149,12.8634391 41.3806625,17.4891899 L41.5069047,17.7461761 L41.4376183,18.0241047 C40.5271083,21.6757352 40.6128356,25.0155766 40.8073856,27.016663 C41.5131679,26.2787819 42.3007629,25.8918348 43.1083219,25.8918348 C45.2583546,25.8918348 46.6476064,27.972581 46.6476064,31.1928348 C46.6476064,34.1672587 45.3849882,38.8693421 42.0678509,39.9444563 L43.5522248,44.2063554 L41.0203338,42.5246912 L41.8476609,46.4753885 L41.7004761,46.7331576 C41.5446795,47.0063889 38.0110709,53.050946 28.9576424,57.0022304 L31.4319905,57.8111594 L26.7428249,58.7578784 L28.5521014,60.2426438 L26.2100631,60.1430201 Z" id="Fill-1" fill="#FFFFFF" mask="url(#mask-4)"></path>
                        <path d="M5.23562809,18.6175216 C5.23562809,18.6175216 7.68218327,15.0559244 10.4712562,12.7457892 C13.3161105,10.3894629 16.3429886,9.27168081 18.1045083,8.09733432 C19.8660281,6.92298784 24.1306673,3.69803666 25.2560827,2.23010355 C25.2560827,2.23010355 25.4809701,4.36623981 23.7071197,6.62940122 C23.7071197,6.62940122 26.7408481,6.89852229 30.7776642,4.81895038 C30.7776642,4.81895038 29.5115229,7.27157302 26.7408481,7.25317492 C26.7408481,7.25317492 27.4748147,8.24412763 31.7684212,7.99947212 C31.7684212,7.99947212 30.9060594,8.78843723 30.8510608,8.84343579 C30.7960623,8.89863008 30.8081972,8.99649228 30.8631957,9.05149084 C30.91839,9.1064894 37.774812,11.9302055 40.6779922,17.8346239 C39.161128,23.9183259 40.3192294,29.1214638 40.3192294,29.1214638 C40.3192294,29.1214638 41.4119588,26.6749086 43.1083023,26.6749086 C44.8046458,26.6749086 45.8646892,28.4364283 45.8646892,31.1928152 C45.8646892,33.9492022 44.5762354,39.0055467 41.0369508,39.3643095 L42.0480631,42.2674898 L39.8626043,40.8159975 L41.02051,46.3452122 C41.02051,46.3452122 37.0735314,53.260743 26.6674515,57.077369 L28.363795,57.6318563 L24.971108,58.3168918 L26.2433167,59.3608858 C26.2433167,59.3608858 12.8158389,58.7899577 6.42210949,48.624423 L7.33966554,41.5906748 L5.23562809,43.2787978 L6.11638795,40.269535 C6.11638795,40.269535 0.782897658,38.9401747 0.782897658,31.8533851 C0.782897658,27.8410346 3.20498729,27.6453102 3.62090167,27.6453102 C4.03681605,27.6453102 5.3824214,27.9633624 6.31211237,29.9695376 C6.31211237,29.9695376 7.29073444,23.7063564 5.23562809,18.6175216" id="Fill-4" fill="#000000" mask="url(#mask-4)"></path>
                        <path d="M18.3491639,27.2293958 C18.3491639,27.2293958 15.8699227,26.4791842 13.3581913,26.6422226 C13.3581913,26.6422226 17.1748174,23.2497313 18.3491639,27.2293958" id="Fill-6" fill="#FFFFFF" mask="url(#mask-4)"></path>
                        <path d="M28.5268334,26.8705743 C28.5268334,26.8705743 32.2273949,26.0162372 33.662642,26.1681193 C33.662642,26.1681193 29.2445548,22.8909097 28.5268334,26.8705743" id="Fill-8" fill="#FFFFFF" mask="url(#mask-4)"></path>
                        <path d="M23.4379986,22.515706 L22.8670705,25.4026412 C22.8670705,25.4026412 21.7416551,23.2169866 19.0993755,22.0426401 C19.0993755,22.0426401 23.552106,25.7451589 20.1758598,27.1479158 C20.1758598,27.1479158 17.3053656,21.504398 12.7058418,22.6270732 C11.9104178,22.8212319 11.3939011,23.3545809 10.5528733,24.1956087 C10.5528733,24.1956087 10.0471214,23.4616421 9.73728962,23.2496726 C9.42745787,23.0377031 9.18280235,22.9071549 9.18280235,22.2872957 C9.18280235,21.9774639 9.47521463,21.2628741 9.97078885,20.7001664 C10.4661673,20.1374587 11.1645121,19.7266331 11.3030849,19.3514294 C11.3030849,19.3514294 11.7107789,18.6828348 11.4661234,17.6225957 C11.4661234,17.6225957 11.2214679,18.6012178 10.2103555,19.1721459 C10.2103555,19.1721459 9.83515183,18.291386 9.83515183,17.9324274 C9.83515183,17.5736646 11.296626,16.1057315 12.3406201,15.2901478 C12.3406201,15.2901478 14.4591411,15.0088919 16.6855063,15.8773211 C18.9118715,16.745946 23.0138638,20.3668477 23.3238913,20.3668477 C23.633723,20.3668477 27.1730076,16.8886291 29.4238384,15.7305278 C31.6746692,14.5726221 33.9908719,14.7194154 33.9908719,14.7194154 C33.9908719,14.7194154 36.0784685,15.8773211 36.7472588,17.280078 C36.7472588,17.280078 36.7961899,17.9813585 36.5188484,18.5360415 C36.5188484,18.5360415 35.7056135,18.4289803 35.0857543,16.9283612 C35.0857543,16.9283612 34.9123424,17.6797472 35.2466397,18.4381793 C35.5811328,19.1966114 36.4415373,19.6980574 36.8288759,20.085396 C37.2162145,20.4727346 37.6280187,20.9499107 37.6280187,22.1649679 L36.323124,23.5514796 C36.323124,23.5514796 35.1652184,22.026395 33.1263571,22.026395 C31.0874959,22.026395 28.6898718,23.412711 26.8304899,26.9684365 C26.8304899,26.9684365 23.4217535,25.8919522 27.7112498,21.8796017 C27.7112498,21.8796017 25.460419,22.7930475 24.1392792,25.3699552 L23.4379986,22.515706 Z" id="Fill-10" fill="#FFFFFF" mask="url(#mask-4)"></path>
                        <path d="M27.0915276,19.742937 L27.0915276,21.2760463 C27.0915276,21.2760463 25.6562804,21.7328671 24.8896279,23.0540069 C24.8896279,23.0540069 25.1669694,20.9010383 27.0915276,19.742937" id="Fill-12" fill="#000000" mask="url(#mask-4)"></path>
                        <path d="M26.7000787,23.5269554 L26.7000787,25.0275745 C26.7000787,25.0275745 29.2118101,21.3984524 33.3384637,20.4116099 C33.3384637,20.4116099 29.9295316,19.9387397 26.7000787,23.5269554" id="Fill-14" fill="#000000" mask="url(#mask-4)"></path>
                        <path d="M14.9402904,21.3984524 C14.9402904,21.3984524 18.4754648,21.818477 20.5511222,25.4515135 L20.5511222,24.4728915 C20.5511222,24.4728915 18.1697433,20.7541276 14.9402904,21.3984524" id="Fill-16" fill="#000000" mask="url(#mask-4)"></path>
                        <path d="M11.1562916,30.2957515 C11.1562916,30.2957515 12.5915388,30.4914759 13.9616097,29.643402 C13.9616097,29.643402 10.9116361,29.8226856 9.8678378,26.6748499 C9.8678378,26.6748499 9.83515183,27.5882957 10.2266007,28.3222623 L9.26422371,27.6372268 C9.26422371,27.6372268 9.46816855,28.5913833 10.0798073,29.2030221 C10.0798073,29.2030221 9.75353475,29.1865813 9.36208592,28.9094355 C9.36208592,28.9094355 9.85139695,30.4914759 9.67211339,32.5628274 L11.0911154,31.4863431 C11.0911154,31.4863431 10.7159117,33.3784111 10.7159117,33.818791 C10.7159117,33.818791 11.3682612,32.2367505 12.8361943,31.1602663 C12.8361943,31.1602663 11.4336331,30.573093 11.1562916,30.2957515" id="Fill-18" fill="#FFFFFF" mask="url(#mask-4)"></path>
                        <path d="M35.003824,29.7199107 C35.003824,29.7199107 33.579146,29.9821814 32.1711046,29.1986966 C32.1711046,29.1986966 35.226167,29.23608 36.1225848,26.0430319 C36.1225848,26.0430319 36.1975472,26.9539333 35.8407416,27.7053193 L36.7700411,26.9762459 C36.7700411,26.9762459 36.6109172,27.9388186 36.0282456,28.5782502 C36.0282456,28.5782502 36.3533439,28.5467386 36.7314834,28.2515862 C36.7314834,28.2515862 36.3163519,29.8547648 36.5919319,31.9155472 L35.1243903,30.9061964 C35.1243903,30.9061964 35.5870828,32.7786919 35.6076338,33.2186804 C35.6076338,33.2186804 34.8822792,31.668543 33.3658064,30.6615409 C33.3658064,30.6615409 34.7397918,30.0097786 35.003824,29.7199107" id="Fill-20" fill="#FFFFFF" mask="url(#mask-4)"></path>
                        <path d="M6.1408535,34.7158547 L6.0429913,30.4426036 C6.0429913,30.4426036 5.48028361,28.5016045 3.4007117,28.5016045 C1.3211398,28.5016045 1.3700709,30.9970908 1.3700709,31.6087296 C1.3700709,32.2203684 1.44111886,35.6189271 3.10712508,37.6517209 C3.66728835,38.3351906 4.12039037,38.7763534 4.39186014,38.7037396 C4.74064104,38.6103791 4.78937642,37.8004715 4.37933377,36.9666855 C4.15973098,36.5202381 3.71073917,36.270298 3.22945284,35.6700112 C3.22945284,35.6700112 3.90646359,34.9838014 3.89002274,34.1776126 C3.86653581,33.0206855 3.075222,31.7727467 2.39762408,33.2723871 C2.39762408,33.2723871 1.46793311,30.385452 3.25391839,30.385452 C5.03990367,30.385452 6.1408535,34.7158547 6.1408535,34.7158547" id="Fill-22" fill="#FFFFFF" mask="url(#mask-4)"></path>
                        <path d="M5.45581805,30.116331 L5.57814581,31.2172808 C5.57814581,31.2172808 4.69738595,29.4802266 2.61781404,29.6270199 C2.61781404,29.6270199 3.79216053,28.4526734 5.45581805,30.116331" id="Fill-24" fill="#000000" mask="url(#mask-4)"></path>
                        <path d="M40.7158453,33.7530276 L40.6659356,29.4584425 C40.6659356,29.4584425 41.3676076,27.5777266 43.4197781,27.5777266 C45.4719486,27.5777266 45.4236047,30.6312232 45.4236047,31.2391432 C45.4236047,31.8468675 45.3535353,34.8823575 43.7094503,36.9024291 C43.1567245,37.5815929 42.7096899,37.7880821 42.4417432,37.7158598 C42.097464,37.6230864 42.0495115,36.8182676 42.4540739,35.9897662 C42.6707408,35.5462547 43.1138609,35.2976847 43.5886883,34.7011166 C43.5886883,34.7011166 42.9206809,34.0192128 42.936926,33.2181128 C42.9602172,32.0684275 43.7409619,30.8283177 44.4095565,32.3185633 C44.4095565,32.3185633 45.3269168,29.4496349 43.5646142,29.4496349 C41.8023116,29.4496349 40.7158453,33.7530276 40.7158453,33.7530276" id="Fill-26" fill="#FFFFFF" mask="url(#mask-4)"></path>
                        <path d="M41.3918187,29.1822949 L41.2710568,30.2763944 C41.2710568,30.2763944 42.1402689,28.550105 44.1922437,28.6961155 C44.1922437,28.6961155 43.0335551,27.5290108 41.3918187,29.1822949" id="Fill-28" fill="#000000" mask="url(#mask-4)"></path>
                        <path d="M25.493105,28.5782306 C25.493105,28.5782306 24.9386177,29.3824623 24.9386177,29.7739111 L24.9386177,30.7953968 C24.9386177,30.7953968 27.6460735,28.3842677 28.853106,28.5017024 C30.017862,28.6148311 32.3107735,30.2305361 32.3107735,31.0134338 C32.3107735,31.6984693 29.1466926,31.4700589 27.6460735,33.3948128 C27.6460735,33.3948128 29.9988767,32.6066305 30.8428404,32.970678 C33.3383267,34.0471622 34.2028414,43.4746201 36.388496,47.7805572 C36.388496,47.7805572 35.1162873,51.4014589 31.2342892,53.6196037 C31.2342892,53.6196037 27.6787595,50.7489137 25.460419,50.5531893 C25.460419,50.5531893 26.2108264,50.1944264 27.809112,50.3901508 C27.809112,50.3901508 25.460419,48.0087719 22.8835114,48.0087719 C20.306408,48.0087719 18.7732987,49.8681538 18.7732987,49.8681538 C18.7732987,49.8681538 19.4908244,49.7378014 19.9801354,49.8681538 C19.9801354,49.8681538 20.1923007,51.417704 18.1207535,53.4890555 C18.1207535,53.4890555 11.1952408,54.2056026 10.5201873,49.998702 C10.3369892,48.8570415 10.9482366,47.2701079 11.3682612,45.2795907 C11.771062,43.3714733 11.975594,41.3764544 12.1511588,40.1473051 C12.1511588,40.1473051 12.771018,32.7422676 15.2502592,32.7422676 C17.2726796,32.7422676 18.9932929,33.9575204 18.9932929,33.9575204 C18.9932929,33.9575204 19.011691,32.7681032 15.7834125,31.996949 C14.2708542,31.6356417 14.0845246,31.6407306 14.0845246,31.2167915 C14.0845246,30.7926567 16.1286704,28.9438438 17.2781599,28.6463427 C17.4824961,28.5934971 19.1931275,28.7220881 21.4318234,30.7953968 C21.4318234,30.7953968 21.7498756,29.565856 20.7101875,28.7095617 C20.7101875,28.7095617 21.3838709,28.425957 23.3238913,29.3212005 C23.5358608,29.4190627 24.3676896,28.5782306 25.493105,28.5782306" id="Fill-30" fill="#FFFFFF" mask="url(#mask-4)"></path>
                        <path d="M20.9425123,33.3457838 C20.9425123,33.3457838 19.9638903,31.2906774 17.5173351,30.2468791 L15.8536776,31.1601293 C15.8536776,31.1601293 18.2839876,31.2579915 20.9425123,33.3457838" id="Fill-32" fill="#000000" mask="url(#mask-4)"></path>
                        <path d="M30.7287331,30.795436 C30.7287331,30.795436 29.4565244,30.0021649 29.1466926,30.0021649 C28.8366652,30.0021649 26.5858344,31.2581285 25.9007989,33.1337555 C25.9007989,33.1337555 28.0375224,31.5679602 28.6409407,31.3884809 C29.2445548,31.2091974 29.9947665,31.1320819 30.7287331,30.795436" id="Fill-34" fill="#000000" mask="url(#mask-4)"></path>
                        <path d="M25.8029955,35.2704202 C25.8029955,35.2704202 26.6616385,35.3357922 27.6296914,35.1563129 C28.4300085,35.0077581 29.3332767,34.6047615 29.6358667,34.6343159 L31.8215212,35.8902795 C31.8215212,35.8902795 30.9734473,34.0633878 29.7012386,33.9003493 C29.1792416,33.8850828 27.6950634,34.9279025 25.8029955,35.2704202" id="Fill-36" fill="#000000" mask="url(#mask-4)"></path>
                        <path d="M19.5846742,47.9517182 L13.7618729,49.3217891 C13.7618729,49.3217891 13.4193552,50.422739 15.9761032,50.5695323 C17.4072401,48.6612192 19.5846742,47.9517182 19.5846742,47.9517182" id="Fill-38" fill="#000000" mask="url(#mask-4)"></path>
                        <path d="M25.3463117,47.6703644 C25.3463117,47.6703644 27.621608,48.4166616 30.0558325,50.4228368 C30.0558325,50.4228368 31.4748345,50.092454 31.4748345,49.7133358 C31.4748345,49.3340219 28.4900372,47.9884165 25.3463117,47.6703644" id="Fill-40" fill="#000000" mask="url(#mask-4)"></path>
                        <path d="M32.7471411,39.6456634 L32.1711241,39.0829557 C32.1711241,39.0829557 32.0172848,41.8761388 34.7574266,47.7805572 C34.7574266,47.7805572 34.1978505,49.476705 31.7538397,50.5531893 C31.7538397,50.5531893 32.4249787,49.7702916 32.5065958,49.5583221 C32.5065958,49.5583221 27.2382817,46.3778003 22.8344824,46.5408388 C18.4306831,46.7040729 14.646743,48.0821685 12.673058,49.2606252 C12.673058,49.2606252 12.9503995,49.9280455 13.8963356,50.3846706 C13.8963356,50.3846706 11.8412292,50.7040928 11.8412292,48.4655927 C11.8412292,47.4037877 12.6194295,45.4886243 13.2281324,43.5067189 C13.9027945,41.3095166 14.398173,39.0590773 14.0186633,38.4223858 C14.0186633,38.4223858 13.8474045,38.8506308 13.4438207,39.2542146 C13.4438207,39.2542146 13.9348933,35.9856168 15.9025108,35.8169024 C19.2298259,35.5313405 20.5836516,37.4234084 23.9109667,37.4234084 C23.9109667,37.4234084 26.961136,37.6191328 29.5707296,36.4285412 C29.5707296,36.4285412 32.4331991,37.415188 32.7471411,39.6456634" id="Fill-42" fill="#000000" mask="url(#mask-4)"></path>
                        <path d="M20.6489257,38.5324808 C20.6489257,38.5324808 22.1982802,36.5752366 23.3238913,38.7771363 C23.3238913,38.7771363 25.1016562,36.6241677 26.2597575,38.4346186 C26.2597575,38.4346186 27.5482113,36.7220299 28.9020371,38.0758557 C28.9020371,38.0758557 29.750111,36.28165 31.1528679,37.9126216 C32.555429,39.5437888 30.9896337,42.7243106 30.4024605,43.3114838 C30.4024605,43.3114838 30.3045983,40.6692042 29.0813207,39.6905821 C29.0813207,39.6905821 29.1791829,41.1095841 27.5808973,42.5610764 C27.5808973,42.5610764 26.9610381,42.6426935 26.6347655,42.479655 C26.6347655,42.479655 26.39011,42.7568008 26.1129642,42.9035941 C25.8356227,43.0503874 24.2860725,43.1320045 24.2860725,43.1320045 C24.2860725,43.1320045 25.7704465,43.2461118 25.9007989,43.37666 C26.0313471,43.5072082 26.6674515,44.3225961 26.6674515,44.3225961 C26.6674515,44.3225961 27.9559053,44.1433126 29.1140067,41.2074463 C29.1140067,41.2074463 29.9295903,42.1044513 29.750111,44.795662 C29.750111,44.795662 30.319669,44.1284375 30.9082124,43.8497259 C31.0685107,43.7735891 31.6480506,44.67353 31.7447385,45.681315 C31.8351632,46.6205965 31.2342892,47.6704622 30.4351465,47.6704622 C30.2883531,47.6704622 29.8806592,47.7642142 29.3586622,46.1984189 L28.5268334,46.8996995 C28.5268334,46.8996995 24.3187585,45.5785597 22.3615144,45.5785597 C20.4042702,45.5785597 15.7558154,46.7691513 15.7558154,46.7691513 C15.7558154,46.7691513 15.0744987,45.0669361 15.8898866,44.055628 C15.8898866,44.055628 16.4273458,44.8363727 17.2509542,45.0076316 C17.2509542,45.0076316 17.0305685,41.4810691 18.4168845,40.567819 C18.4168845,40.567819 18.3736294,42.2103382 18.9690231,42.8057319 C19.2136786,43.0503874 19.5178343,43.3455399 19.941382,43.3705926 C20.5829666,43.4085631 21.2053702,43.4183493 21.4480685,43.6050704 C21.4480685,43.6050704 21.4073578,43.0830734 20.8323195,42.9362801 C20.2574769,42.7894868 19.6458381,42.9607457 19.3401166,41.7863992 C19.0341993,40.6120527 18.9240065,39.4743067 18.6182849,39.40091 C18.3123677,39.3275133 16.9146996,40.9410654 16.5876441,43.7925744 C16.5876441,43.7925744 14.4836067,41.9821236 14.4836067,39.7312928 C14.4836067,37.480462 17.2971451,35.5842839 18.5325576,37.8229798 C18.5325576,37.8229798 19.9638903,36.1714572 20.6489257,38.5324808" id="Fill-44" fill="#FFFFFF" mask="url(#mask-4)"></path>
                    </g>
                    <rect id="Rectangle-5" fill="#363636" x="61" y="2.54166667" width="1.27083333" height="58.4583333"></rect>
                </g>
            </g>
        </g>
    </g>
</svg>