<?xml version="1.0" encoding="UTF-8"?>
<svg width="37px" height="48px" viewBox="0 0 37 48" version="1.1" xmlns="http://www.w3.org/2000/svg" xmlns:xlink="http://www.w3.org/1999/xlink">
    <!-- Generator: Sketch 42 (36781) - http://www.bohemiancoding.com/sketch -->
    <title>Group 29</title>
    <desc>Created with Sketch.</desc>
    <defs>
        <polygon id="path-1" points="1.54012669e-05 47.4040168 36.7062979 47.4040168 36.7062979 0.154043457 1.54012669e-05 0.154043457 1.54012669e-05 47.4040168"></polygon>
    </defs>
    <g id="Page-1" stroke="none" stroke-width="1" fill="none" fill-rule="evenodd">
        <g id="Group-29">
            <mask id="mask-2" fill="white">
                <use xlink:href="#path-1"></use>
            </mask>
            <g id="Clip-2"></g>
            <path d="M20.6243119,47.3256552 C20.5128068,47.3210348 17.8562425,47.1965926 14.5403501,46.0689119 C10.1260394,44.5677506 6.66522103,41.9815701 4.53214577,38.5899034 L4.41401807,38.402162 L4.96646146,34.166044 L2.97877414,35.760691 L4.0614831,32.0617691 C2.8005815,31.500547 1.54012669e-05,29.7289394 1.54012669e-05,25.0649742 C1.54012669e-05,21.2477706 2.55754953,21.1376515 2.8492495,21.1376515 C2.96629912,21.1376515 3.72219322,21.1666059 4.50319139,21.8750641 C4.58943848,20.1433458 4.53060564,17.3122852 3.54862096,14.8805794 L3.42479479,14.5737862 L3.61207418,14.3010298 C3.69262279,14.1838262 5.61146645,11.406516 7.8466521,9.55497586 C9.35089369,8.30901349 10.9230549,7.48581585 12.1861126,6.8243315 C12.8622282,6.47041042 13.4460902,6.1646953 13.9044318,5.8591342 C15.3801811,4.87530137 18.5816421,2.42757826 19.3846641,1.37998418 L20.3247573,0.154043457 L20.4863166,1.69031968 C20.4930932,1.75485098 20.613223,3.02391525 19.8135893,4.55541708 C20.7624613,4.44591409 22.2221932,4.12741592 23.9363541,3.24430736 L25.6508229,2.3611988 L24.7658662,4.07458958 C24.7353717,4.13357642 24.2533121,5.04379121 23.2480715,5.68802614 C23.4669235,5.70142524 23.7108795,5.70927989 23.9828659,5.70927989 C24.288889,5.70927989 24.6187841,5.69926906 24.9631564,5.67955544 L26.6907164,5.58114136 C26.6907164,5.58114136 25.3010602,6.85251582 25.2446916,6.90426407 C27.2001902,7.89964785 30.7720517,10.1220504 32.5618328,13.7619855 L32.6611709,13.9642041 L32.6066504,14.1829021 C31.8901836,17.0563162 31.9576411,19.6843881 32.1107297,21.2590135 C32.6660993,20.6783858 33.2858462,20.3739028 33.9213024,20.3739028 C35.6131315,20.3739028 36.7063133,22.0112113 36.7063133,24.5451815 C36.7063133,26.8857118 35.7127776,30.5857118 33.1025712,31.4317033 L34.2706031,34.7853288 L32.2782955,33.4620521 L32.9293069,36.5707975 L32.8134894,36.7736322 C32.6908954,36.9886339 29.9103509,41.7450067 22.7863416,44.8542141 L24.7333695,45.4907484 L21.0435344,46.2357076 L22.4672274,47.4040476 L20.6243119,47.3256552 Z" id="Fill-1" fill="#FFFFFF" mask="url(#mask-2)"></path>
            <path d="M4.11983849,14.6498531 C4.11983849,14.6498531 6.04499667,11.8472848 8.23967699,10.0294734 C10.4782509,8.1753151 12.8600566,7.29574883 14.2461705,6.37167291 C15.6322844,5.44759699 18.9880661,2.90993049 19.8736389,1.75483558 C19.8736389,1.75483558 20.0505994,3.43572969 18.6547827,5.21657801 C18.6547827,5.21657801 21.0419789,5.4283454 24.2184898,3.79196096 C24.2184898,3.79196096 23.222182,5.72189352 21.0419789,5.70741633 C21.0419789,5.70741633 21.6195263,6.4871824 24.9981019,6.29466658 C24.9981019,6.29466658 24.3195221,6.91549159 24.2762446,6.95876915 C24.232967,7.00220072 24.2425158,7.07920704 24.2857934,7.1224846 C24.3292249,7.16576215 29.7244422,9.38770271 32.0089119,14.0338024 C30.8153139,18.8209778 31.7266067,22.9152502 31.7266067,22.9152502 C31.7266067,22.9152502 32.5864594,20.990092 33.921287,20.990092 C35.2561147,20.990092 36.0902473,22.3762059 36.0902473,24.5451661 C36.0902473,26.7141263 35.076382,30.6928892 32.2913711,30.9751944 L33.0870005,33.2596641 L31.3672952,32.1175062 L32.2784341,36.4683637 C32.2784341,36.4683637 29.1726149,41.9100928 20.9842241,44.9133396 L22.3190518,45.3496574 L19.6493964,45.8887017 L20.6504787,46.7102052 C20.6504787,46.7102052 10.0845946,46.2609503 5.0534632,38.2618411 L5.77547453,32.7270883 L4.11983849,34.0554475 L4.81289544,31.6875029 C4.81289544,31.6875029 0.616050616,30.641449 0.616050616,25.0649588 C0.616050616,21.9076994 2.52195721,21.7536867 2.8492341,21.7536867 C3.17651099,21.7536867 4.23534799,22.0039573 4.96690809,23.582587 C4.96690809,23.582587 5.73697136,18.6541821 4.11983849,14.6498531" id="Fill-4" fill="#000000" mask="url(#mask-2)"></path>
            <path d="M14.4386863,21.4264098 C14.4386863,21.4264098 12.487808,20.8360793 10.5113636,20.9643719 C10.5113636,20.9643719 13.5146104,18.2948705 14.4386863,21.4264098" id="Fill-6" fill="#FFFFFF" mask="url(#mask-2)"></path>
            <path d="M22.4473443,21.1440584 C22.4473443,21.1440584 25.3592616,20.4717932 26.4886364,20.591307 C26.4886364,20.591307 23.0121087,18.0125191 22.4473443,21.1440584" id="Fill-8" fill="#FFFFFF" mask="url(#mask-2)"></path>
            <path d="M18.4430153,17.7172769 L17.9937604,19.9889635 C17.9937604,19.9889635 17.1081876,18.2691042 15.0290168,17.3450283 C15.0290168,17.3450283 18.5328047,20.2584857 15.8760864,21.3622944 C15.8760864,21.3622944 13.6173368,16.9214935 9.99803946,17.8049101 C9.37213203,17.9576906 8.96569264,18.3773751 8.30390027,19.0391675 C8.30390027,19.0391675 7.90593157,18.46162 7.66212954,18.2948243 C7.41832751,18.1280286 7.22581169,18.0253022 7.22581169,17.5375441 C7.22581169,17.2937421 7.45590659,16.7314419 7.84586663,16.2886555 C8.23567266,15.8458691 8.78518981,15.5225966 8.89423077,15.2273543 C8.89423077,15.2273543 9.21503913,14.7012471 9.02252331,13.8669605 C9.02252331,13.8669605 8.83000749,14.6370238 8.03437812,15.0862787 C8.03437812,15.0862787 7.73913586,14.3932218 7.73913586,14.1107626 C7.73913586,13.8284574 8.88914835,12.6733625 9.71065185,12.0315917 C9.71065185,12.0315917 11.3776848,11.8102756 13.1295788,12.4936297 C14.8814727,13.1771379 18.1092699,16.026372 18.3532259,16.026372 C18.597028,16.026372 21.3820388,13.2894131 23.1531843,12.3781202 C24.9243298,11.4669814 26.7469156,11.5824908 26.7469156,11.5824908 C26.7469156,11.5824908 28.3896146,12.4936297 28.9158758,13.5974384 C28.9158758,13.5974384 28.954379,14.1492657 28.736143,14.5857376 C28.736143,14.5857376 28.0962204,14.5014927 27.6084624,13.3206777 C27.6084624,13.3206777 27.4720072,13.9119322 27.7350608,14.5087313 C27.9982684,15.1055303 28.675308,15.5001107 28.9800991,15.8049018 C29.2848901,16.1096928 29.6089327,16.4851757 29.6089327,17.4412862 L28.5821304,18.5323119 C28.5821304,18.5323119 27.6709915,17.3322453 26.0666417,17.3322453 C24.4622919,17.3322453 22.5756369,18.4231169 21.1125167,21.2210648 C21.1125167,21.2210648 18.4302323,20.3739952 21.8055736,17.2167358 C21.8055736,17.2167358 20.0344281,17.9355128 18.9948427,19.9632434 L18.4430153,17.7172769 Z" id="Fill-10" fill="#FFFFFF" mask="url(#mask-2)"></path>
            <path d="M21.3179233,15.5354258 L21.3179233,16.7418069 C21.3179233,16.7418069 20.1885485,17.1012725 19.585281,18.1408579 C19.585281,18.1408579 19.8035169,16.4467187 21.3179233,15.5354258" id="Fill-12" fill="#000000" mask="url(#mask-2)"></path>
            <path d="M21.009898,18.5130141 L21.009898,19.6938291 C21.009898,19.6938291 22.9863424,16.8381265 26.2335452,16.0615947 C26.2335452,16.0615947 23.5511068,15.6895001 21.009898,18.5130141" id="Fill-14" fill="#000000" mask="url(#mask-2)"></path>
            <path d="M11.7562941,16.8381265 C11.7562941,16.8381265 14.5380707,17.1686376 16.1713749,20.0274205 L16.1713749,19.2573572 C16.1713749,19.2573572 14.2975029,16.3311168 11.7562941,16.8381265" id="Fill-16" fill="#000000" mask="url(#mask-2)"></path>
            <path d="M8.77872128,23.8392799 C8.77872128,23.8392799 9.90809607,23.9932925 10.9861846,23.3259557 C10.9861846,23.3259557 8.58620546,23.4670313 7.76485598,20.9900458 C7.76485598,20.9900458 7.73913586,21.7088228 8.04716117,22.2863703 L7.28988095,21.747326 C7.28988095,21.747326 7.45036214,22.4981377 7.93165168,22.9794272 C7.93165168,22.9794272 7.67491259,22.9664902 7.36688728,22.7484083 C7.36688728,22.7484083 7.75191891,23.9932925 7.61084332,25.6232085 L8.72743506,24.7761389 C8.72743506,24.7761389 8.43219281,26.2649792 8.43219281,26.6115077 C8.43219281,26.6115077 8.94551698,25.3666234 10.1006119,24.5195538 C10.1006119,24.5195538 8.99695721,24.0575158 8.77872128,23.8392799" id="Fill-18" fill="#FFFFFF" mask="url(#mask-2)"></path>
            <path d="M27.5439927,23.3861593 C27.5439927,23.3861593 26.4229346,23.5925362 25.3149675,22.9760236 C25.3149675,22.9760236 27.718951,23.00544 28.424329,20.4928775 C28.424329,20.4928775 28.4833159,21.2096524 28.2025508,21.800907 L28.9338029,21.2272099 C28.9338029,21.2272099 28.8085906,21.9846441 28.3500949,22.4878034 C28.3500949,22.4878034 28.6059099,22.4630074 28.9034624,22.2307563 C28.9034624,22.2307563 28.5768015,23.492274 28.7936513,25.1138732 L27.6388645,24.31963 C27.6388645,24.31963 28.0029504,25.793069 28.0191217,26.1392895 C28.0191217,26.1392895 27.4483508,24.9195092 26.2550608,24.1271141 C26.2550608,24.1271141 27.3362296,23.614252 27.5439927,23.3861593" id="Fill-20" fill="#FFFFFF" mask="url(#mask-2)"></path>
            <path d="M4.83214702,27.3173939 L4.75514069,23.9548356 C4.75514069,23.9548356 4.31235431,22.4274921 2.67596986,22.4274921 C1.03958541,22.4274921 1.07808858,24.3911534 1.07808858,24.872443 C1.07808858,25.3537325 1.13399517,28.0280082 2.44495088,29.6275837 C2.8857351,30.1653959 3.24227439,30.5125404 3.45588994,30.4554017 C3.73034049,30.3819376 3.76868964,29.7446333 3.44603313,29.0885394 C3.27323094,28.7372365 2.91992591,28.5405624 2.54120879,28.0682055 C2.54120879,28.0682055 3.07393856,27.5282372 3.0610015,26.8938591 C3.04251998,25.9834903 2.41984682,25.0015056 1.88665501,26.1815505 C1.88665501,26.1815505 1.15509491,23.9098639 2.56046037,23.9098639 C3.96582584,23.9098639 4.83214702,27.3173939 4.83214702,27.3173939" id="Fill-22" fill="#FFFFFF" mask="url(#mask-2)"></path>
            <path d="M4.29310273,23.6980965 L4.38936064,24.5644177 C4.38936064,24.5644177 3.6963037,23.1975554 2.05991925,23.3130649 C2.05991925,23.3130649 2.98399517,22.3889889 4.29310273,23.6980965" id="Fill-24" fill="#000000" mask="url(#mask-2)"></path>
            <path d="M32.038698,26.5597594 L31.9994247,23.1804138 C31.9994247,23.1804138 32.5515601,21.7005062 34.1663828,21.7005062 C35.7812055,21.7005062 35.7431643,24.1032576 35.7431643,24.5816209 C35.7431643,25.0598302 35.6880278,27.4484124 34.3943215,29.037977 C33.9593898,29.5724009 33.6076249,29.7348843 33.3967816,29.6780536 C33.1258733,29.6050516 33.0881402,28.9717516 33.4064843,28.319816 C33.5769764,27.9708233 33.925661,27.7752273 34.2992957,27.3057967 C34.2992957,27.3057967 33.7736505,26.7692166 33.7864336,26.1388428 C33.8047611,25.2341725 34.4191175,24.2583483 34.9452248,25.4310007 C34.9452248,25.4310007 35.6670821,23.1734832 34.2803521,23.1734832 C32.8936222,23.1734832 32.038698,26.5597594 32.038698,26.5597594" id="Fill-26" fill="#FFFFFF" mask="url(#mask-2)"></path>
            <path d="M32.5706115,22.9631173 L32.4755857,23.824048 C32.4755857,23.824048 33.1595559,22.4656564 34.7742245,22.5805499 C34.7742245,22.5805499 33.8624696,21.6621724 32.5706115,22.9631173" id="Fill-28" fill="#000000" mask="url(#mask-2)"></path>
            <path d="M20.0601482,22.487788 C20.0601482,22.487788 19.6238303,23.120626 19.6238303,23.4286513 L19.6238303,24.2324434 C19.6238303,24.2324434 21.7542874,22.3351615 22.7040834,22.4275691 C23.6206127,22.5165884 25.424871,23.7879629 25.424871,24.4040135 C25.424871,24.9430578 22.9351024,24.763325 21.7542874,26.2778854 C21.7542874,26.2778854 23.6056735,25.6576765 24.2697761,25.94414 C26.2334374,26.7912096 26.9137113,34.2095371 28.6335706,37.5978155 C28.6335706,37.5978155 27.6324883,40.4470496 24.5778014,42.192475 C24.5778014,42.192475 21.7800075,39.9335714 20.0344281,39.7795588 C20.0344281,39.7795588 20.6249126,39.4972536 21.8825799,39.6512662 C21.8825799,39.6512662 20.0344281,37.7773943 18.0066975,37.7773943 C15.9788129,37.7773943 14.7724317,39.2405145 14.7724317,39.2405145 C14.7724317,39.2405145 15.3370421,39.1379421 15.7220738,39.2405145 C15.7220738,39.2405145 15.8890235,40.4598327 14.2589535,42.0897486 C14.2589535,42.0897486 8.8093698,42.6535889 8.27818015,39.3432409 C8.13402431,38.4448851 8.61500583,37.1961505 8.94551698,35.6298418 C9.26247502,34.1283725 9.42341825,32.5585215 9.5615676,31.591322 C9.5615676,31.591322 10.0493257,25.7644073 12.000204,25.7644073 C13.5916167,25.7644073 14.945542,26.7206718 14.945542,26.7206718 C14.945542,26.7206718 14.9600191,25.7847369 12.4197344,25.1779271 C11.2295246,24.8936197 11.0829046,24.897624 11.0829046,24.5640326 C11.0829046,24.2302872 12.6914128,22.7754837 13.5959291,22.5413844 C13.7567183,22.499801 15.1027889,22.6009873 16.8643856,24.2324434 C16.8643856,24.2324434 17.1146562,23.2649359 16.296541,22.5911305 C16.296541,22.5911305 16.8266525,22.3679662 18.3532259,23.0724201 C18.5200216,23.1494264 19.1745754,22.487788 20.0601482,22.487788" id="Fill-30" fill="#FFFFFF" mask="url(#mask-2)"></path>
            <path d="M16.479354,26.2393053 C16.479354,26.2393053 15.7092907,24.6221724 13.7841325,23.8008229 L12.475025,24.519446 C12.475025,24.519446 14.3874001,24.5964523 16.479354,26.2393053" id="Fill-32" fill="#000000" mask="url(#mask-2)"></path>
            <path d="M24.1799867,24.2324742 C24.1799867,24.2324742 23.1789044,23.6082609 22.9351024,23.6082609 C22.6911464,23.6082609 20.9200008,24.5965601 20.3809565,26.0724634 C20.3809565,26.0724634 22.0623127,24.8403621 22.5371337,24.6991325 C23.0121087,24.5580569 23.6024392,24.497376 24.1799867,24.2324742" id="Fill-34" fill="#000000" mask="url(#mask-2)"></path>
            <path d="M20.3039964,27.7537733 C20.3039964,27.7537733 20.9796499,27.8052135 21.7413965,27.6639839 C22.3711543,27.5470883 23.0819227,27.2299763 23.3200262,27.2532322 L25.0398855,28.2415314 C25.0398855,28.2415314 24.3725487,26.8039773 23.3714665,26.6756847 C22.9607147,26.6636717 21.7928367,27.4842512 20.3039964,27.7537733" id="Fill-36" fill="#000000" mask="url(#mask-2)"></path>
            <path d="M15.4108912,37.7324996 L10.8290147,38.8105882 C10.8290147,38.8105882 10.5594926,39.6769093 12.5713599,39.7924188 C13.6975004,38.2907955 15.4108912,37.7324996 15.4108912,37.7324996" id="Fill-38" fill="#000000" mask="url(#mask-2)"></path>
            <path d="M19.9446387,37.5111064 C19.9446387,37.5111064 21.7350358,38.0983566 23.6504912,39.6769863 C23.6504912,39.6769863 24.7670829,39.417013 24.7670829,39.1186905 C24.7670829,38.820214 22.4183899,37.761377 19.9446387,37.5111064" id="Fill-40" fill="#000000" mask="url(#mask-2)"></path>
            <path d="M25.7682422,31.1965876 L25.3149829,30.7538012 C25.3149829,30.7538012 25.193929,32.9517158 27.3501061,37.5978155 C27.3501061,37.5978155 26.909784,38.9324892 24.986628,39.7795588 C24.986628,39.7795588 25.5147373,39.1635082 25.5789606,38.9967125 C25.5789606,38.9967125 21.433402,36.4940068 17.9681173,36.6222994 C14.5028326,36.7507459 11.5253059,37.835149 9.97224234,38.7624592 C9.97224234,38.7624592 10.1904783,39.2876424 10.9348214,39.6469539 C10.9348214,39.6469539 9.31768856,39.8983025 9.31768856,38.1368598 C9.31768856,37.3013412 9.93004287,35.7943273 10.4090222,34.2347952 C10.9399038,32.5058492 11.3297099,30.7350117 11.0310793,30.2340085 C11.0310793,30.2340085 10.8963183,30.5709882 10.5787442,30.8885623 C10.5787442,30.8885623 10.9651619,28.3165509 12.5134511,28.183792 C15.1316663,27.9590876 16.1969718,29.4479279 18.8151869,29.4479279 C18.8151869,29.4479279 21.2153201,29.6019406 23.2687708,28.6650816 C23.2687708,28.6650816 25.5212059,29.4414594 25.7682422,31.1965876" id="Fill-42" fill="#000000" mask="url(#mask-2)"></path>
            <path d="M16.248335,30.3206406 C16.248335,30.3206406 17.4674992,28.7805141 18.3532259,30.5131564 C18.3532259,30.5131564 19.7521229,28.8190172 20.6634158,30.2436343 C20.6634158,30.2436343 21.6772811,28.8960236 22.7425866,29.9613291 C22.7425866,29.9613291 23.4099234,28.5494951 24.5137321,29.8328825 C25.6173868,31.116424 24.3852855,33.6191296 23.9232476,34.0811676 C23.9232476,34.0811676 23.8462413,32.0019968 22.8836622,31.2319335 C22.8836622,31.2319335 22.9606685,32.3485252 21.7030012,33.4906831 C21.7030012,33.4906831 21.2152431,33.5549063 20.958504,33.4266138 C20.958504,33.4266138 20.7659882,33.6446957 20.5479063,33.7602052 C20.3296703,33.8757147 19.1103521,33.939938 19.1103521,33.939938 C19.1103521,33.939938 20.2783841,34.0297274 20.3809565,34.1324538 C20.483683,34.2351802 20.9842241,34.876797 20.9842241,34.876797 C20.9842241,34.876797 21.9980894,34.7357214 22.9093823,32.4255316 C22.9093823,32.4255316 23.551153,33.1313715 23.4099234,35.2490455 C23.4099234,35.2490455 23.8581002,34.7240164 24.3212163,34.5047024 C24.4473526,34.4447915 24.9033841,35.1529416 24.9794664,35.9459528 C25.0506202,36.6850595 24.5778014,37.5111834 23.9489677,37.5111834 C23.8334582,37.5111834 23.5126499,37.5849555 23.1018981,36.3528542 L22.4473443,36.9046816 C22.4473443,36.9046816 19.1360723,35.8650962 17.5959457,35.8650962 C16.0558192,35.8650962 12.3980186,36.8019551 12.3980186,36.8019551 C12.3980186,36.8019551 11.8619006,35.4625071 12.5035173,34.6667237 C12.5035173,34.6667237 12.9264361,35.2810802 13.5745213,35.4158412 C13.5745213,35.4158412 13.4011031,32.6408412 14.4919747,31.9222182 C14.4919747,31.9222182 14.4579379,33.2146924 14.9264444,33.6831989 C15.1189602,33.8757147 15.3582959,34.1079658 15.6915793,34.1276794 C16.1964327,34.1575579 16.686193,34.1652585 16.8771687,34.3121866 C16.8771687,34.3121866 16.845134,33.9014348 16.3926449,33.7859253 C15.9403097,33.6704158 15.4590201,33.8051769 15.2184524,32.881101 C14.9777306,31.9570251 14.8910215,31.0617495 14.6504537,31.0039948 C14.4097319,30.94624 13.3099276,32.2159203 13.0525724,34.4597307 C13.0525724,34.4597307 11.3969364,33.0351136 11.3969364,31.2639681 C11.3969364,29.4928226 13.6108683,28.000748 14.5829962,29.7623447 C14.5829962,29.7623447 15.7092907,28.462786 16.248335,30.3206406" id="Fill-44" fill="#FFFFFF" mask="url(#mask-2)"></path>
        </g>
    </g>
</svg>